<svg id="visual" viewBox="0 0 900 600" width="900" height="600" xmlns="http://www.w3.org/2000/svg" xmlns:xlink="http://www.w3.org/1999/xlink" version="1.1"><path d="M0 55L13.7 54C27.3 53 54.7 51 82 49C109.3 47 136.7 45 163.8 43C191 41 218 39 245.2 46C272.3 53 299.7 69 327 80C354.3 91 381.7 97 409 97C436.3 97 463.7 91 491 92C518.3 93 545.7 101 573 100C600.3 99 627.7 89 654.8 80C682 71 709 63 736.2 65C763.3 67 790.7 79 818 80C845.3 81 872.7 71 886.3 66L900 61L900 0L886.3 0C872.7 0 845.3 0 818 0C790.7 0 763.3 0 736.2 0C709 0 682 0 654.8 0C627.7 0 600.3 0 573 0C545.7 0 518.3 0 491 0C463.7 0 436.3 0 409 0C381.7 0 354.3 0 327 0C299.7 0 272.3 0 245.2 0C218 0 191 0 163.8 0C136.7 0 109.3 0 82 0C54.7 0 27.3 0 13.7 0L0 0Z" fill="#83bcb7"></path><path d="M0 91L13.7 91C27.3 91 54.7 91 82 91C109.3 91 136.7 91 163.8 90C191 89 218 87 245.2 93C272.3 99 299.7 113 327 120C354.3 127 381.7 127 409 127C436.3 127 463.7 127 491 134C518.3 141 545.7 155 573 158C600.3 161 627.7 153 654.8 139C682 125 709 105 736.2 101C763.3 97 790.7 109 818 112C845.3 115 872.7 109 886.3 106L900 103L900 59L886.3 64C872.7 69 845.3 79 818 78C790.7 77 763.3 65 736.2 63C709 61 682 69 654.8 78C627.7 87 600.3 97 573 98C545.7 99 518.3 91 491 90C463.7 89 436.3 95 409 95C381.7 95 354.3 89 327 78C299.7 67 272.3 51 245.2 44C218 37 191 39 163.8 41C136.7 43 109.3 45 82 47C54.7 49 27.3 51 13.7 52L0 53Z" fill="#a0d3cf"></path><path d="M0 151L13.7 148C27.3 145 54.7 139 82 137C109.3 135 136.7 137 163.8 133C191 129 218 119 245.2 125C272.3 131 299.7 153 327 164C354.3 175 381.7 175 409 176C436.3 177 463.7 179 491 182C518.3 185 545.7 189 573 195C600.3 201 627.7 209 654.8 204C682 199 709 181 736.2 170C763.3 159 790.7 155 818 157C845.3 159 872.7 167 886.3 171L900 175L900 101L886.3 104C872.7 107 845.3 113 818 110C790.7 107 763.3 95 736.2 99C709 103 682 123 654.8 137C627.7 151 600.3 159 573 156C545.7 153 518.3 139 491 132C463.7 125 436.3 125 409 125C381.7 125 354.3 125 327 118C299.7 111 272.3 97 245.2 91C218 85 191 87 163.8 88C136.7 89 109.3 89 82 89C54.7 89 27.3 89 13.7 89L0 89Z" fill="#b9e0db"></path><path d="M0 361L13.7 356C27.3 351 54.7 341 82 338C109.3 335 136.7 339 163.8 329C191 319 218 295 245.2 293C272.3 291 299.7 311 327 324C354.3 337 381.7 343 409 335C436.3 327 463.7 305 491 309C518.3 313 545.7 343 573 360C600.3 377 627.7 381 654.8 376C682 371 709 357 736.2 349C763.3 341 790.7 339 818 325C845.3 311 872.7 285 886.3 272L900 259L900 173L886.3 169C872.7 165 845.3 157 818 155C790.7 153 763.3 157 736.2 168C709 179 682 197 654.8 202C627.7 207 600.3 199 573 193C545.7 187 518.3 183 491 180C463.7 177 436.3 175 409 174C381.7 173 354.3 173 327 162C299.7 151 272.3 129 245.2 123C218 117 191 127 163.8 131C136.7 135 109.3 133 82 135C54.7 137 27.3 143 13.7 146L0 149Z" fill="#c3e4df"></path><path d="M0 475L13.7 462C27.3 449 54.7 423 82 415C109.3 407 136.7 417 163.8 411C191 405 218 383 245.2 380C272.3 377 299.7 393 327 399C354.3 405 381.7 401 409 400C436.3 399 463.7 401 491 415C518.3 429 545.7 455 573 463C600.3 471 627.7 461 654.8 457C682 453 709 455 736.2 448C763.3 441 790.7 425 818 404C845.3 383 872.7 357 886.3 344L900 331L900 257L886.3 270C872.7 283 845.3 309 818 323C790.7 337 763.3 339 736.2 347C709 355 682 369 654.8 374C627.7 379 600.3 375 573 358C545.7 341 518.3 311 491 307C463.7 303 436.3 325 409 333C381.7 341 354.3 335 327 322C299.7 309 272.3 289 245.2 291C218 293 191 317 163.8 327C136.7 337 109.3 333 82 336C54.7 339 27.3 349 13.7 354L0 359Z" fill="#b9e0db"></path><path d="M0 565L13.7 558C27.3 551 54.7 537 82 530C109.3 523 136.7 523 163.8 528C191 533 218 543 245.2 551C272.3 559 299.7 565 327 568C354.3 571 381.7 571 409 567C436.3 563 463.7 555 491 554C518.3 553 545.7 559 573 561C600.3 563 627.7 561 654.8 562C682 563 709 567 736.2 568C763.3 569 790.7 567 818 558C845.3 549 872.7 533 886.3 525L900 517L900 329L886.3 342C872.7 355 845.3 381 818 402C790.7 423 763.3 439 736.2 446C709 453 682 451 654.8 455C627.7 459 600.3 469 573 461C545.7 453 518.3 427 491 413C463.7 399 436.3 397 409 398C381.7 399 354.3 403 327 397C299.7 391 272.3 375 245.2 378C218 381 191 403 163.8 409C136.7 415 109.3 405 82 413C54.7 421 27.3 447 13.7 460L0 473Z" fill="#a0d3cf"></path><path d="M0 601L13.7 601C27.3 601 54.7 601 82 601C109.3 601 136.7 601 163.8 601C191 601 218 601 245.2 601C272.3 601 299.7 601 327 601C354.3 601 381.7 601 409 601C436.3 601 463.7 601 491 601C518.3 601 545.7 601 573 601C600.3 601 627.7 601 654.8 601C682 601 709 601 736.2 601C763.3 601 790.7 601 818 601C845.3 601 872.7 601 886.3 601L900 601L900 515L886.3 523C872.7 531 845.3 547 818 556C790.7 565 763.3 567 736.2 566C709 565 682 561 654.8 560C627.7 559 600.3 561 573 559C545.7 557 518.3 551 491 552C463.7 553 436.3 561 409 565C381.7 569 354.3 569 327 566C299.7 563 272.3 557 245.2 549C218 541 191 531 163.8 526C136.7 521 109.3 521 82 528C54.7 535 27.3 549 13.7 556L0 563Z" fill="#83bcb7"></path></svg>