<svg id="visual" viewBox="0 0 960 540" width="960" height="540" xmlns="http://www.w3.org/2000/svg" xmlns:xlink="http://www.w3.org/1999/xlink" version="1.1"><rect x="0" y="0" width="960" height="540" fill="#A6D8D4"></rect><path d="M0 233L22.8 242.8C45.7 252.7 91.3 272.3 137 281.5C182.7 290.7 228.3 289.3 274 294.3C319.7 299.3 365.3 310.7 411.2 310C457 309.3 503 296.7 548.8 296C594.7 295.3 640.3 306.7 686 311.3C731.7 316 777.3 314 823 297.8C868.7 281.7 914.3 251.3 937.2 236.2L960 221L960 541L937.2 541C914.3 541 868.7 541 823 541C777.3 541 731.7 541 686 541C640.3 541 594.7 541 548.8 541C503 541 457 541 411.2 541C365.3 541 319.7 541 274 541C228.3 541 182.7 541 137 541C91.3 541 45.7 541 22.8 541L0 541Z" fill="#d7dae5"></path><path d="M0 293L22.8 286.7C45.7 280.3 91.3 267.7 137 263.3C182.7 259 228.3 263 274 271C319.7 279 365.3 291 411.2 293.2C457 295.3 503 287.7 548.8 279.2C594.7 270.7 640.3 261.3 686 274.2C731.7 287 777.3 322 823 324.3C868.7 326.7 914.3 296.3 937.2 281.2L960 266L960 541L937.2 541C914.3 541 868.7 541 823 541C777.3 541 731.7 541 686 541C640.3 541 594.7 541 548.8 541C503 541 457 541 411.2 541C365.3 541 319.7 541 274 541C228.3 541 182.7 541 137 541C91.3 541 45.7 541 22.8 541L0 541Z" fill="#d0d6e3"></path><path d="M0 355L22.8 347.3C45.7 339.7 91.3 324.3 137 328.2C182.7 332 228.3 355 274 369.8C319.7 384.7 365.3 391.3 411.2 384.8C457 378.3 503 358.7 548.8 343.8C594.7 329 640.3 319 686 327.8C731.7 336.7 777.3 364.3 823 366.8C868.7 369.3 914.3 346.7 937.2 335.3L960 324L960 541L937.2 541C914.3 541 868.7 541 823 541C777.3 541 731.7 541 686 541C640.3 541 594.7 541 548.8 541C503 541 457 541 411.2 541C365.3 541 319.7 541 274 541C228.3 541 182.7 541 137 541C91.3 541 45.7 541 22.8 541L0 541Z" fill="#c9d3e0"></path><path d="M0 387L22.8 384C45.7 381 91.3 375 137 385C182.7 395 228.3 421 274 426.2C319.7 431.3 365.3 415.7 411.2 414.8C457 414 503 428 548.8 424.8C594.7 421.7 640.3 401.3 686 403.7C731.7 406 777.3 431 823 438C868.7 445 914.3 434 937.2 428.5L960 423L960 541L937.2 541C914.3 541 868.7 541 823 541C777.3 541 731.7 541 686 541C640.3 541 594.7 541 548.8 541C503 541 457 541 411.2 541C365.3 541 319.7 541 274 541C228.3 541 182.7 541 137 541C91.3 541 45.7 541 22.8 541L0 541Z" fill="#c1d0dd"></path><path d="M0 438L22.8 441.2C45.7 444.3 91.3 450.7 137 459.7C182.7 468.7 228.3 480.3 274 481.5C319.7 482.7 365.3 473.3 411.2 474.2C457 475 503 486 548.8 489.3C594.7 492.7 640.3 488.3 686 487C731.7 485.7 777.3 487.3 823 487.5C868.7 487.7 914.3 486.3 937.2 485.7L960 485L960 541L937.2 541C914.3 541 868.7 541 823 541C777.3 541 731.7 541 686 541C640.3 541 594.7 541 548.8 541C503 541 457 541 411.2 541C365.3 541 319.7 541 274 541C228.3 541 182.7 541 137 541C91.3 541 45.7 541 22.8 541L0 541Z" fill="#b9cdda"></path></svg>